<svg xmlns="http://www.w3.org/2000/svg" width="16.271" height="13.333" viewBox="0 0 16.271 13.333"><g transform="translate(0 0)"><g transform="translate(0 0)"><path d="M14.712,39H3.326A1.562,1.562,0,0,0,1.77,40.563v.019H1.559A1.558,1.558,0,0,0,0,42.134V50.77a1.568,1.568,0,0,0,1.559,1.563H12.945A1.562,1.562,0,0,0,14.5,50.77v-.019h.211A1.558,1.558,0,0,0,16.271,49.2V40.563A1.566,1.566,0,0,0,14.712,39ZM12.945,51.58H1.559a.815.815,0,0,1-.806-.81V42.134a.805.805,0,0,1,.806-.8H12.945a.8.8,0,0,1,.8.8v2.154a.927.927,0,0,1-.2.023H11.375a2.145,2.145,0,0,0,0,4.29h2.169c.068,0,.136-.011.2-.019l0,2.188A.809.809,0,0,1,12.945,51.58Zm2.573-2.38a.805.805,0,0,1-.806.8H14.5V48.311a2.059,2.059,0,0,0,.433-.4l.584-.753Zm-1.179-1.74a1.014,1.014,0,0,1-.791.392H11.375a1.394,1.394,0,0,1,0-2.787h2.169a1.718,1.718,0,0,0,.75-.169,1.752,1.752,0,0,0,.637-.512l.584-.753,0,2.3ZM15.518,42.4,14.5,43.708V42.134a1.553,1.553,0,0,0-1.556-1.552H2.524v-.019a.809.809,0,0,1,.8-.81H14.712a.815.815,0,0,1,.806.81Z" transform="translate(0 -39)" fill="#38383a"/></g></g><g transform="translate(10.938 7.081)"><g transform="translate(0 0)"><path d="M291.681,227h-.9a.377.377,0,0,0,0,.753h.9a.377.377,0,0,0,0-.753Z" transform="translate(-290.4 -227)" fill="#38383a"/></g></g></svg>