<svg xmlns="http://www.w3.org/2000/svg" width="18.938" height="18.938" viewBox="0 0 18.938 18.938"><path d="M18.077,9.825v-8.1A1.724,1.724,0,0,0,16.356,0H1.722A1.724,1.724,0,0,0,0,1.722V16.356a1.724,1.724,0,0,0,1.722,1.722h8.1a6.013,6.013,0,0,0,8.252-8.252ZM9.469.861h6.887a.862.862,0,0,1,.861.861V8.7a6,6,0,0,0-7.747-.729V.861ZM.861,1.722A.862.862,0,0,1,1.722.861H8.608V8.608H.861V1.722Zm.861,15.495a.862.862,0,0,1-.861-.861V9.469H7.974A6,6,0,0,0,8.7,17.216Zm11.191.861a5.165,5.165,0,1,1,5.165-5.165A5.171,5.171,0,0,1,12.912,18.077Z" fill="#007aff"/><path d="M67.873,65.722H66.581V64.43a.43.43,0,0,0-.861,0v1.291H64.429a.43.43,0,1,0,0,.861h1.291v1.291a.43.43,0,0,0,.861,0V66.582h1.291a.43.43,0,1,0,0-.861Z" transform="translate(-61.417 -61.418)" fill="#007aff"/><path d="M281.637,107.1a.43.43,0,0,0-.43-.43h-3.443a.43.43,0,0,0,0,.861h3.443A.43.43,0,0,0,281.637,107.1Z" transform="translate(-266.142 -102.362)" fill="#007aff"/><path d="M77.985,288.126a.43.43,0,0,0-.609,0l-.987.987-.987-.987a.43.43,0,1,0-.609.609l.987.987-.987.987a.43.43,0,1,0,.609.609l.987-.987.987.987a.43.43,0,0,0,.609-.609L77,289.721l.987-.987A.43.43,0,0,0,77.985,288.126Z" transform="translate(-71.655 -276.379)" fill="#007aff"/><path d="M260.734,277.333h-4.3a.43.43,0,1,0,0,.861h4.3a.43.43,0,1,0,0-.861Z" transform="translate(-245.67 -266.142)" fill="#007aff"/><path d="M260.734,341.333h-4.3a.43.43,0,1,0,0,.861h4.3a.43.43,0,1,0,0-.861Z" transform="translate(-245.67 -327.56)" fill="#007aff"/></svg>