<svg xmlns="http://www.w3.org/2000/svg" width="43" height="43.001" viewBox="0 0 43 43.001"><g transform="translate(-0.002)"><circle cx="21.5" cy="21.5" r="21.5" transform="translate(0.002 0.001)" fill="#fff"/><path d="M0,48.633a21.49,21.49,0,0,0,11.052,18.79V29.842A21.491,21.491,0,0,0,0,48.633Z" transform="translate(0 -27.133)" fill="#d32027"/><path d="M229.544,473.552c-.247,0-.485-.008-.728-.013Q229.178,473.551,229.544,473.552Z" transform="translate(-208.043 -430.552)" fill="#fff"/><path d="M236.643,0h0c11.874,0,11.874,43,0,43a21.4,21.4,0,0,0,10.43-2.7V2.7A21.4,21.4,0,0,0,236.643,0Z" transform="translate(-215.142 0)" fill="#e7e7e7"/><path d="M351.734,29.737v37.6a21.5,21.5,0,0,0,0-37.6Z" transform="translate(-319.802 -27.038)" fill="#b52025"/><path d="M132.2,0h-.019a21.4,21.4,0,0,0-10.428,2.709V40.29a21.381,21.381,0,0,0,9.719,2.7c.243,0,.481.013.728.013C144.07,43,144.07,0,132.2,0Z" transform="translate(-110.694 0)" fill="#f3f1f2"/><path d="M161.291,140.145c-.3-.282-.9-.251-1.011-.721a4.384,4.384,0,0,1,.722-2.6c-1.694.4-3.029,1.048-3.028-.865-.973,1.189-2.018,2.378-2.45,2.162-.613-.36.589-3.421.72-5.045-.593.271-1.73.865-1.73.865s-1.033-2.021-1.58-3.017v-.011a.012.012,0,0,0,0,.005s0,0,0-.005v.011c-.548,1-1.58,3.017-1.58,3.017s-1.137-.594-1.73-.865c.131,1.624,1.333,4.685.719,5.045-.432.216-1.477-.973-2.449-2.162,0,1.913-1.335,1.261-3.028.865a4.377,4.377,0,0,1,.72,2.6c-.107.47-.714.438-1.009.721,1.965,1.965,5.371,3.424,3.749,5.046l4.374-.408c.143,1.478-.319,3.292.082,4.3h.306c.41-1.046-.058-2.823.085-4.3l4.373.408C155.921,143.569,159.327,142.109,161.291,140.145Z" transform="translate(-131.446 -119.033)" fill="#d32027"/></g></svg>