<svg xmlns="http://www.w3.org/2000/svg" width="21.889" height="15.391" viewBox="0 0 21.889 15.391"><g transform="translate(0 -76)"><g transform="translate(0 82.84)"><path d="M21.034,236H.855a.855.855,0,1,0,0,1.71H21.034a.855.855,0,1,0,0-1.71Z" transform="translate(0 -236)"/></g><g transform="translate(0 76)"><path d="M21.034,76H.855a.855.855,0,1,0,0,1.71H21.034a.855.855,0,1,0,0-1.71Z" transform="translate(0 -76)"/></g><g transform="translate(0 89.681)"><path d="M21.034,396H.855a.855.855,0,0,0,0,1.71H21.034a.855.855,0,0,0,0-1.71Z" transform="translate(0 -396)"/></g></g></svg>