<svg xmlns="http://www.w3.org/2000/svg" width="17.318" height="18.532" viewBox="0 0 17.318 18.532"><g transform="translate(-0.07 0)"><path d="M374.614,147.439a.333.333,0,0,0-.063-.037.4.4,0,0,0-.07-.019.372.372,0,0,0-.211.019.354.354,0,0,0-.122.081.372.372,0,0,0,0,.523.312.312,0,0,0,.122.082.369.369,0,0,0,.141.029.445.445,0,0,0,.07-.007l.07-.022c.022-.011.045-.022.063-.033a.4.4,0,0,0,.059-.048.375.375,0,0,0,.107-.26.384.384,0,0,0-.107-.263A.228.228,0,0,0,374.614,147.439Zm0,0" transform="translate(-358.809 -141.402)" fill="#007aff"/><path d="M334.891,147.592c-.011-.022-.022-.041-.033-.063a.627.627,0,0,0-.048-.056.364.364,0,0,0-.523,0,.362.362,0,0,0-.082.4.4.4,0,0,0,.2.2.373.373,0,0,0,.145.029.362.362,0,0,0,.259-.111.325.325,0,0,0,.082-.119.37.37,0,0,0,.03-.141.508.508,0,0,0-.007-.074C334.906,147.64,334.9,147.615,334.891,147.592Zm0,0" transform="translate(-320.562 -141.392)" fill="#007aff"/><path d="M16.4,4.225H13.925V.371A.371.371,0,0,0,13.554,0H3.9a.371.371,0,0,0-.371.371V4.225H1.061a.992.992,0,0,0-.991.991v8.005a.992.992,0,0,0,.991.991H3.533v3.949a.371.371,0,0,0,.371.371h9.65a.371.371,0,0,0,.371-.371V14.212H16.4a.992.992,0,0,0,.991-.991V5.216a.992.992,0,0,0-.991-.991ZM4.275.741h8.909V4.225H4.275Zm0,17.049V10.7h8.909V17.79Zm12.372-4.569a.251.251,0,0,1-.25.25H13.925V10.7h1.163a.371.371,0,0,0,0-.741H2.37a.371.371,0,0,0,0,.741H3.533v2.773H1.061a.251.251,0,0,1-.25-.25V5.216a.25.25,0,0,1,.25-.25H16.4a.25.25,0,0,1,.25.25Zm0,0" fill="#007aff"/><path d="M124.664,296.733h4.463a.371.371,0,1,0,0-.741h-4.463a.371.371,0,1,0,0,.741Zm0,0" transform="translate(-119.188 -283.993)" fill="#007aff"/><path d="M131.168,342.242h-6.505a.371.371,0,1,0,0,.741h6.505a.371.371,0,1,0,0-.741Zm0,0" transform="translate(-119.187 -328.368)" fill="#007aff"/><path d="M131.168,388.492h-6.505a.371.371,0,1,0,0,.741h6.505a.371.371,0,1,0,0-.741Zm0,0" transform="translate(-119.187 -372.743)" fill="#007aff"/></g></svg>