<svg xmlns="http://www.w3.org/2000/svg" width="91.524" height="12.139" viewBox="0 0 91.524 12.139"><g transform="translate(-0.001 0.001)"><path d="M.157.168l6.28,5.79a.1.1,0,0,1,.005.137L6.437,6.1l-6.4,5.856a.1.1,0,0,0-.008.135.1.1,0,0,0,.073.032h4.22a.094.094,0,0,0,.065-.026L8.6,8.187a.1.1,0,0,1,.133,0L12.7,12.094a.1.1,0,0,0,.069.027H17.76a.1.1,0,0,0,.1-.094h0a.093.093,0,0,0-.03-.072L11.289,5.911a.1.1,0,0,1-.008-.137l.008-.007,2.072-1.792A.1.1,0,0,0,13.3,3.8H9.1a.094.094,0,0,1-.066-.028L5.276.027A.1.1,0,0,0,5.205,0H.222A.1.1,0,0,0,.157.167" transform="translate(0 0)" fill="#fff"/><path d="M174.305,1.05h-8.432a.077.077,0,0,0-.052.021l-3.148,3.022a.079.079,0,0,0,0,.107.073.073,0,0,0,.057.025l11.3-.061c1.141.03,1.68.618,1.73,1.3,0,.823-.428,1.564-2.048,1.564h-5.639A.078.078,0,0,0,168,7.1h0V9.6a.075.075,0,0,0,.023.053l3.467,3.411a.078.078,0,0,0,.127-.053V10.2a.078.078,0,0,1,.078-.078h1.452c3.174.19,5.592-1.387,5.592-4.584A4.424,4.424,0,0,0,174.305,1.05Z" transform="translate(-152.79 -0.987)" fill="#fff"/><path d="M445.63.2h2.91l1.935,7.776h.034L453.05.2h2.486l2.518,7.982h.028L460.121.2h2.706l-3.545,12.127H456.9l-2.672-8.393h-.034l-2.672,8.393H449.23Z" transform="translate(-418.609 -0.189)" fill="#fff"/><path d="M696.591.2H698.8l5.275,12.127h-3.014l-1.045-2.569h-4.71L694.3,12.327H691.35Zm1.031,3.528L696.148,7.5h2.963Z" transform="translate(-649.431 -0.189)" fill="#fff"/><path d="M916,.2h2.672V9.86h4.95v2.467H916Z" transform="translate(-860.459 -0.189)" fill="#fff"/><path d="M1057.68.2h2.672V9.86h4.95v2.467h-7.622Z" transform="translate(-993.549 -0.189)" fill="#fff"/><path d="M1198.342.2h8.238V2.667h-5.566V4.928h5.258V7.394h-5.258V9.86h5.875v2.467h-8.549Z" transform="translate(-1125.68 -0.189)" fill="#fff"/><path d="M1354.75,2.563h-3.46V.2h9.592V2.565h-3.46v9.762h-2.672Z" transform="translate(-1269.356 -0.189)" fill="#fff"/></g></svg>