<svg xmlns="http://www.w3.org/2000/svg" width="10.177" height="9.855" viewBox="0 0 10.177 9.855"><g transform="translate(0 0)"><g transform="translate(2.375 0)"><path d="M133.4,4.948a.338.338,0,0,0-.309-.2H131.73V1.339A.339.339,0,0,0,131.39,1h-1.357a.339.339,0,0,0-.339.339v3.41h-1.357a.339.339,0,0,0-.255.562l2.375,2.714a.338.338,0,0,0,.51,0l2.375-2.714A.338.338,0,0,0,133.4,4.948Z" transform="translate(-127.998 -1)" fill="#636366"/></g><g transform="translate(0 6.463)"><path d="M24.82,352v2.035H17.357V352H16v2.714a.678.678,0,0,0,.678.678H25.5a.678.678,0,0,0,.678-.678V352Z" transform="translate(-16 -352)" fill="#636366"/></g></g></svg>