<svg xmlns="http://www.w3.org/2000/svg" width="12.857" height="8.71" viewBox="0 0 12.857 8.71"><g transform="translate(0 -80)"><path d="M11.613,80H1.244A1.2,1.2,0,0,0,0,81.2v3.152H0v3.152a1.2,1.2,0,0,0,1.244,1.2H11.613a1.2,1.2,0,0,0,1.244-1.2V84.355h0V81.2A1.2,1.2,0,0,0,11.613,80Z" fill="#0c723e"/><path d="M58.369,80H48l5.184,4.4h0l5.1,4.313a1.273,1.273,0,0,0,1.327-1.2V84.355h0V81.2A1.2,1.2,0,0,0,58.369,80Z" transform="translate(-46.756)" fill="#085e2f"/><path d="M12.857,368.021a1.217,1.217,0,0,1-1.244,1.223H1.244A1.235,1.235,0,0,1,0,368" transform="translate(0 -280.535)" fill="#c11414"/><g transform="translate(1.244 80)"><path d="M48,80H58.369a1.2,1.2,0,0,1,1.244,1.2v2.323" transform="translate(-48 -80)" fill="#054c23"/><path d="M136,368v1.244h8.087A1.164,1.164,0,0,0,145.332,368Z" transform="translate(-133.719 -360.535)" fill="#054c23"/></g><path d="M3.525,80H1.244A1.2,1.2,0,0,0,0,81.2v3.152H0v3.152a1.2,1.2,0,0,0,1.244,1.2H3.525Z" fill="#f3f4f5"/><path d="M50.281,80H48l2.281,1.929Z" transform="translate(-46.756)" fill="#e0e0e0"/><path d="M50.281,80H48l2.281.684Z" transform="translate(-46.756)" fill="#ccc"/><path d="M0,248H0v3.152a1.2,1.2,0,0,0,1.244,1.2H3.525V248Z" transform="translate(0 -163.645)" fill="#e0e0e0"/><path d="M0,368a1.164,1.164,0,0,0,1.244,1.244H3.525V368Z" transform="translate(0 -280.535)" fill="#ccc"/><path d="M193.111,176.279a1.748,1.748,0,0,1-.954.435,1.631,1.631,0,0,1-1.327-.5,1.61,1.61,0,0,1,.083-2.281,1.634,1.634,0,0,1,.747-.394,1.95,1.95,0,0,0-1.493,3.276,1.94,1.94,0,0,0,1.846.581,1.918,1.918,0,0,0,.933-.477,1.951,1.951,0,0,0,.622-1.348A2.165,2.165,0,0,1,193.111,176.279Z" transform="translate(-184.734 -91.115)" fill="#f3f4f5"/><g transform="translate(5.184 82.404)"><path d="M299.2,251.5l.373.311.062-.062a1.951,1.951,0,0,0,.622-1.348,1.6,1.6,0,0,1-.456.726A1.231,1.231,0,0,1,299.2,251.5Z" transform="translate(-296.629 -248.387)" fill="#c3cad1"/><path d="M200,173.675l.477.415a1.778,1.778,0,0,1,.5-.954,1.634,1.634,0,0,1,.747-.394,1.971,1.971,0,0,0-1.389.518A3.233,3.233,0,0,0,200,173.675Z" transform="translate(-200 -172.74)" fill="#c3cad1"/></g><path d="M286.815,190.305l.041.415.207-.373.415.1-.27-.311.207-.373-.394.166-.27-.332.021.435-.373.166Z" transform="translate(-278.976 -106.759)" fill="#ccc"/></g></svg>