<svg xmlns="http://www.w3.org/2000/svg" width="47.511" height="22.198" viewBox="0 0 47.511 22.198"><g transform="translate(-112.868 -25)"><path d="M.287.308l11.5,10.6a.178.178,0,0,1,.01.251l-.01.01L.059,21.891a.175.175,0,0,0-.014.248.179.179,0,0,0,.133.059H7.9a.172.172,0,0,0,.12-.048l7.726-7.16a.179.179,0,0,1,.244,0l7.264,7.152a.177.177,0,0,0,.125.05h9.13a.175.175,0,0,0,.178-.172h0a.171.171,0,0,0-.056-.131L20.667,10.823a.179.179,0,0,1-.014-.251l.014-.012L24.46,7.278a.174.174,0,0,0-.111-.314h-7.7a.172.172,0,0,1-.121-.051L9.658.049A.177.177,0,0,0,9.529,0H.406A.178.178,0,0,0,.287.306" transform="translate(112.867 25.001)" fill="#007aff"/><path d="M183.987,1.05H168.549a.141.141,0,0,0-.094.038L162.691,6.62a.144.144,0,0,0,0,.2.134.134,0,0,0,.1.046l20.694-.111c2.088.056,3.076,1.132,3.167,2.371,0,1.506-.784,2.864-3.749,2.864H172.584a.143.143,0,0,0-.137.143h0V16.7a.137.137,0,0,0,.042.1l6.347,6.244a.142.142,0,0,0,.232-.1V17.807a.142.142,0,0,1,.143-.142h2.659c5.811.347,10.237-2.54,10.237-8.392C192.024,5.8,189.955,1.4,183.987,1.05Z" transform="translate(-31.729 24.067)" fill="#007aff"/></g></svg>