<svg xmlns="http://www.w3.org/2000/svg" width="18.023" height="10.814" viewBox="0 0 18.023 10.814"><g transform="translate(0 -100.8)"><path d="M212.414,106.207a5.407,5.407,0,1,1-10.814,0h0a5.407,5.407,0,1,1,10.814,0Z" transform="translate(-194.391 0)" fill="#ffb600"/><path d="M207.007,100.8a5.421,5.421,0,0,1,5.407,5.407h0a5.407,5.407,0,0,1-10.814,0" transform="translate(-194.391)" fill="#f7981d"/><path d="M352.8,100.8a5.421,5.421,0,0,1,5.407,5.407h0a5.4,5.4,0,0,1-5.407,5.407" transform="translate(-340.184)" fill="#ff8500"/><path d="M5.35,100.8a5.407,5.407,0,0,0,.057,10.814,5.47,5.47,0,0,0,3.633-1.4h0a5.139,5.139,0,0,0,.544-.572H8.468a6.6,6.6,0,0,1-.4-.544H9.984a3.664,3.664,0,0,0,.315-.572H7.753a3.409,3.409,0,0,1-.229-.572H10.5a5.68,5.68,0,0,0,.286-1.716,7.384,7.384,0,0,0-.114-1.144H7.352a4.182,4.182,0,0,1,.143-.572H10.47a3.41,3.41,0,0,0-.229-.572H7.724a5.673,5.673,0,0,1,.315-.572H9.956a2.72,2.72,0,0,0-.429-.572H8.468a4.875,4.875,0,0,1,.544-.544,5.279,5.279,0,0,0-3.633-1.4C5.378,100.8,5.378,100.8,5.35,100.8Z" fill="#ff5050"/><path d="M0,107.75a5.4,5.4,0,0,0,5.407,5.407,5.47,5.47,0,0,0,3.633-1.4h0a5.141,5.141,0,0,0,.544-.572H8.468a6.6,6.6,0,0,1-.4-.544H9.984a3.665,3.665,0,0,0,.315-.572H7.753a3.41,3.41,0,0,1-.229-.572H10.5a5.681,5.681,0,0,0,.286-1.716,7.384,7.384,0,0,0-.114-1.144H7.352a4.182,4.182,0,0,1,.143-.572H10.47a3.41,3.41,0,0,0-.229-.572H7.724a5.674,5.674,0,0,1,.315-.572H9.956a2.721,2.721,0,0,0-.429-.572H8.468a4.876,4.876,0,0,1,.544-.544,5.279,5.279,0,0,0-3.633-1.4H5.35" transform="translate(0 -1.543)" fill="#e52836"/><path d="M149.657,113.157a5.47,5.47,0,0,0,3.633-1.4h0a5.139,5.139,0,0,0,.544-.572h-1.116a6.6,6.6,0,0,1-.4-.544h1.917a3.665,3.665,0,0,0,.315-.572H152a3.411,3.411,0,0,1-.229-.572h2.975a5.681,5.681,0,0,0,.286-1.716,7.384,7.384,0,0,0-.114-1.144H151.6a4.184,4.184,0,0,1,.143-.572h2.975a3.411,3.411,0,0,0-.229-.572h-2.517a5.668,5.668,0,0,1,.315-.572h1.917a2.721,2.721,0,0,0-.429-.572h-1.058a4.874,4.874,0,0,1,.544-.544,5.279,5.279,0,0,0-3.633-1.4H149.6" transform="translate(-144.25 -1.543)" fill="#cb2026"/><g transform="translate(0.515 104.805)"><path d="M182.43,222.517l.086-.486a1.239,1.239,0,0,1-.143.029c-.2,0-.229-.114-.2-.172l.172-1h.315l.086-.544h-.286l.057-.343h-.572s-.343,1.888-.343,2.117a.429.429,0,0,0,.458.486A.879.879,0,0,0,182.43,222.517Z" transform="translate(-175.621 -219.742)" fill="#fff"/><path d="M210.4,229.99a.91.91,0,0,0,1,1,1.485,1.485,0,0,0,.6-.086l.114-.544a1.715,1.715,0,0,1-.6.143c-.629,0-.515-.458-.515-.458h1.173a3.709,3.709,0,0,0,.086-.515.775.775,0,0,0-.83-.83C210.829,228.645,210.4,229.275,210.4,229.99Zm1-.83c.315,0,.257.372.257.4h-.629C211.029,229.532,211.087,229.16,211.4,229.16Z" transform="translate(-203.391 -228.13)" fill="#fff"/><path d="M297.573,215.575l.114-.629a1.406,1.406,0,0,1-.486.143c-.4,0-.572-.315-.572-.658,0-.687.343-1.058.744-1.058a.955.955,0,0,1,.515.172l.086-.6a2.012,2.012,0,0,0-.658-.143c-.658,0-1.316.572-1.316,1.659,0,.715.343,1.2,1.03,1.2A2.567,2.567,0,0,0,297.573,215.575Z" transform="translate(-285.93 -212.8)" fill="#fff"/><path d="M87.487,227.2a2.026,2.026,0,0,0-.687.114l-.086.486a1.691,1.691,0,0,1,.629-.114c.2,0,.372.029.372.2,0,.114-.029.143-.029.143H87.43c-.486,0-1.03.2-1.03.858,0,.515.343.629.544.629a.86.86,0,0,0,.6-.257l-.029.229h.515l.229-1.573A.678.678,0,0,0,87.487,227.2Zm.114,1.287c0,.086-.057.544-.4.544a.223.223,0,0,1-.229-.229c0-.143.086-.343.515-.343A.451.451,0,0,0,87.6,228.487Z" transform="translate(-83.825 -226.685)" fill="#fff"/><path d="M135.858,228.746a.733.733,0,0,0,.858-.744c0-.715-.687-.572-.687-.858,0-.143.114-.2.315-.2.086,0,.4.029.4.029l.086-.515a2.172,2.172,0,0,0-.544-.057c-.429,0-.858.172-.858.744,0,.658.715.6.715.858,0,.172-.2.2-.343.2a1.871,1.871,0,0,1-.515-.086l-.086.515C135.229,228.689,135.372,228.746,135.858,228.746Z" transform="translate(-130.88 -225.914)" fill="#fff"/><path d="M428.831,214.4l-.114.772a.793.793,0,0,0-.544-.286c-.515,0-.973.629-.973,1.373,0,.458.229.944.715.944a.764.764,0,0,0,.544-.229l-.029.2H429l.429-2.746Zm-.257,1.516c0,.315-.143.715-.458.715-.2,0-.315-.172-.315-.458,0-.458.2-.744.458-.744C428.459,215.43,428.573,215.573,428.573,215.916Z" transform="translate(-412.438 -214.343)" fill="#fff"/><path d="M14.944,217.146l.343-2.06.057,2.06h.4l.744-2.06-.315,2.06h.6l.458-2.746h-.944l-.572,1.688-.029-1.688h-.83l-.458,2.746Z" transform="translate(-14.4 -214.343)" fill="#fff"/><path d="M260.629,231.031c.172-.944.2-1.716.6-1.573a2.247,2.247,0,0,1,.2-.658h-.114c-.257,0-.458.343-.458.343l.057-.315h-.544L260,231.06h.629Z" transform="translate(-251.217 -228.228)" fill="#fff"/><path d="M347.487,227.2a2.026,2.026,0,0,0-.687.114l-.086.486a1.692,1.692,0,0,1,.629-.114c.2,0,.372.029.372.2,0,.114-.029.143-.029.143h-.257c-.486,0-1.03.2-1.03.858,0,.515.343.629.544.629a.86.86,0,0,0,.6-.257l-.029.229h.515l.229-1.573A.668.668,0,0,0,347.487,227.2Zm.143,1.287c0,.086-.057.544-.4.544A.223.223,0,0,1,347,228.8c0-.143.086-.343.515-.343C347.6,228.487,347.6,228.487,347.63,228.487Z" transform="translate(-334.528 -226.685)" fill="#fff"/><path d="M395.029,231.031c.172-.944.2-1.716.6-1.573a2.246,2.246,0,0,1,.2-.658h-.114c-.257,0-.458.343-.458.343l.057-.315h-.544l-.372,2.231h.629Z" transform="translate(-380.811 -228.228)" fill="#fff"/></g><g transform="translate(0.515 104.805)"><path d="M180,222.117a.429.429,0,0,0,.458.486,1.089,1.089,0,0,0,.429-.086l.086-.486a1.237,1.237,0,0,1-.143.029c-.2,0-.229-.114-.2-.172l.172-1h.315l.086-.544h-.286l.057-.343" transform="translate(-174.078 -219.743)" fill="#dce5e5"/><path d="M218.4,229.99c0,.8.257,1,.715,1a1.485,1.485,0,0,0,.6-.086l.114-.544a1.715,1.715,0,0,1-.6.143c-.629,0-.515-.458-.515-.458h1.173a3.709,3.709,0,0,0,.086-.515.775.775,0,0,0-.83-.83C218.543,228.645,218.4,229.275,218.4,229.99Zm.715-.83c.315,0,.372.372.372.4h-.744C218.743,229.532,218.8,229.16,219.115,229.16Z" transform="translate(-211.105 -228.13)" fill="#dce5e5"/><path d="M305.287,215.575l.114-.629a1.406,1.406,0,0,1-.486.143c-.4,0-.572-.315-.572-.658,0-.687.343-1.058.744-1.058a.955.955,0,0,1,.515.172l.086-.6a2.012,2.012,0,0,0-.658-.143c-.658,0-1.03.572-1.03,1.659,0,.715.057,1.2.744,1.2A2.567,2.567,0,0,0,305.287,215.575Z" transform="translate(-293.644 -212.8)" fill="#dce5e5"/><path d="M86.715,229.372a1.691,1.691,0,0,1,.629-.114c.2,0,.372.029.372.2,0,.114-.029.143-.029.143H87.43c-.486,0-1.03.2-1.03.858,0,.515.343.629.544.629a.86.86,0,0,0,.6-.257l-.029.229h.515l.229-1.573c0-.658-.572-.687-.8-.687m.429,1.23a.937.937,0,0,1-.687.544.223.223,0,0,1-.229-.229c0-.143.086-.343.515-.343A2.338,2.338,0,0,0,87.888,230.03Z" transform="translate(-83.825 -228.228)" fill="#dce5e5"/><path d="M136,228.689a2.421,2.421,0,0,0,.658.057.733.733,0,0,0,.858-.744c0-.715-.687-.572-.687-.858,0-.143.114-.2.315-.2.086,0,.4.029.4.029l.086-.515a2.172,2.172,0,0,0-.544-.057c-.429,0-.572.172-.572.744,0,.658.429.6.429.858,0,.172-.2.2-.343.2" transform="translate(-131.652 -225.914)" fill="#dce5e5"/><path d="M436.374,215.944a.793.793,0,0,0-.544-.286c-.515,0-.687.629-.687,1.373,0,.458-.057.944.429.944a.764.764,0,0,0,.544-.229l-.029.2h.572l.429-2.746m-.744,1.488c0,.315-.257.715-.572.715-.2,0-.315-.172-.315-.458,0-.458.2-.744.458-.744A.437.437,0,0,1,436.346,216.688Z" transform="translate(-420.096 -215.114)" fill="#dce5e5"/><path d="M14.944,217.146l.343-2.06.057,2.06h.4l.744-2.06-.315,2.06h.6l.458-2.746h-.715l-.8,1.688-.029-1.688h-.315l-.973,2.746Z" transform="translate(-14.4 -214.343)" fill="#dce5e5"/><path d="M260.8,231.031h.6c.172-.944.2-1.716.6-1.573a2.246,2.246,0,0,1,.2-.658h-.114c-.257,0-.458.343-.458.343l.057-.315" transform="translate(-251.989 -228.228)" fill="#dce5e5"/><path d="M346.715,229.372a1.691,1.691,0,0,1,.629-.114c.2,0,.372.029.372.2,0,.114-.029.143-.029.143h-.258c-.486,0-1.03.2-1.03.858,0,.515.343.629.544.629a.86.86,0,0,0,.6-.257l-.029.229h.515l.229-1.573c0-.658-.572-.687-.8-.687m.429,1.23a.937.937,0,0,1-.687.544.223.223,0,0,1-.229-.229c0-.143.086-.343.515-.343A2.518,2.518,0,0,0,347.888,230.03Z" transform="translate(-334.528 -228.228)" fill="#dce5e5"/><path d="M395.2,231.031h.6c.172-.944.2-1.716.6-1.573a2.247,2.247,0,0,1,.2-.658h-.114c-.257,0-.458.343-.458.343l.057-.315" transform="translate(-381.583 -228.228)" fill="#dce5e5"/></g></g></svg>