<svg xmlns="http://www.w3.org/2000/svg" width="24.609" height="28" viewBox="0 0 24.609 28"><path d="M54.789,23.078a2.464,2.464,0,0,1-2.461-2.461V12.3a9.04,9.04,0,0,0-6.562-8.682V2.461a2.461,2.461,0,0,0-4.922,0V3.622A9.04,9.04,0,0,0,34.281,12.3v8.312a2.464,2.464,0,0,1-2.461,2.461H31v1.641h9.844v.82a2.461,2.461,0,0,0,4.922,0v-.82h9.844V23.078ZM42.484,2.461a.82.82,0,0,1,1.641,0v.858c-.27-.024-.544-.038-.82-.038s-.55.013-.82.038Zm.82,2.461A7.391,7.391,0,0,1,50.687,12.3V19.8H35.922V12.3A7.391,7.391,0,0,1,43.3,4.922ZM35.839,21.438H50.77a4.085,4.085,0,0,0,.74,1.641H35.1A4.085,4.085,0,0,0,35.839,21.438Zm8.286,4.1a.82.82,0,0,1-1.641,0v-.82h1.641Z" transform="translate(-31 0)" fill="#007aff"/></svg>